<svg width="400" height="75" viewBox="0 0 400 75" fill="none" xmlns="http://www.w3.org/2000/svg">
<rect x="300.5" y="30.5" width="99" height="44" rx="5.5" fill="#FAFAFA" stroke="#282828"/>
<rect x="0.5" y="30.5" width="289" height="44" rx="5.5" fill="#FAFAFA" stroke="#DDDDDD"/>
<path d="M12.704 2.768V17.264H11.04V2.768H12.704ZM5.008 3.84C7.168 3.84 8.736 5.824 8.736 8.928C8.736 12.064 7.168 14.032 5.008 14.032C2.88 14.032 1.296 12.064 1.296 8.928C1.296 5.824 2.88 3.84 5.008 3.84ZM5.008 5.328C3.728 5.328 2.88 6.672 2.88 8.928C2.88 11.248 3.728 12.56 5.008 12.56C6.288 12.56 7.152 11.248 7.152 8.928C7.152 6.672 6.288 5.328 5.008 5.328ZM26.9428 2.768V17.264H25.2788V2.768H26.9428ZM22.6068 4.144V13.696H15.8228V4.144H22.6068ZM17.4388 5.456V12.368H20.9908V5.456H17.4388ZM41.1815 2.784V17.232H39.5175V2.784H41.1815ZM34.6215 6.96C34.6215 9.376 36.1095 11.84 38.3655 12.816L37.4535 14.112C35.7735 13.36 34.4935 11.808 33.8055 9.936C33.1655 11.936 31.8695 13.68 30.1735 14.48L29.2295 13.168C31.4695 12.16 32.9575 9.408 32.9575 6.96V5.584H29.7415V4.224H37.8375V5.584H34.6215V6.96Z" fill="#282828"/>
<path d="M334.402 52.456V59.036H333.254V46.492H334.402V51.504H336.474V52.456H334.402ZM330.552 54.794C331.21 54.752 331.854 54.71 332.47 54.612L332.554 55.466C329.936 55.872 326.926 55.928 324.728 55.928L324.588 54.962H325.4C325.666 54.962 325.96 54.962 326.254 54.948V48.76H324.91V47.836H331.896V48.76H330.552V54.794ZM327.374 54.934C328.046 54.92 328.746 54.906 329.432 54.864V48.76H327.374V54.934ZM346.357 52.918V46.478H347.505V52.918H346.357ZM343.977 49.726C343.977 51.364 342.591 52.498 340.729 52.498C338.867 52.498 337.495 51.364 337.495 49.726C337.495 48.06 338.867 46.926 340.729 46.926C342.591 46.926 343.977 48.06 343.977 49.726ZM338.601 49.726C338.601 50.79 339.511 51.574 340.729 51.574C341.961 51.574 342.857 50.79 342.857 49.726C342.857 48.648 341.961 47.864 340.729 47.864C339.511 47.864 338.601 48.648 338.601 49.726ZM347.925 58.868H339.399V55.718H346.371V54.444H339.371V53.534H347.505V56.572H340.533V57.958H347.925V58.868ZM358.811 50.384V49.432H361.555V46.492H362.717V55.872H361.555V50.384H358.811ZM359.105 53.786C357.705 53.24 356.655 52.162 356.109 50.804C355.563 52.316 354.457 53.478 352.987 54.08L352.385 53.17C354.261 52.498 355.521 50.692 355.521 48.788V47.234H356.669V48.83C356.669 50.58 357.915 52.232 359.707 52.904L359.105 53.786ZM363.011 58.756H354.639V54.836H355.787V57.818H363.011V58.756ZM375.428 54.094H374.322V50.692H372.642V54.01H371.55V46.716H372.642V49.754H374.322V46.492H375.428V54.094ZM370.822 53.086C369.366 53.38 368.19 53.436 366.174 53.436H365.376V47.402H370.22V48.326H366.482V49.908H370.08V50.79H366.482V52.498C368.274 52.498 369.408 52.428 370.71 52.162L370.822 53.086ZM375.428 54.752V59.036H374.28V55.676H366.986V54.752H375.428Z" fill="#282828"/>
<path d="M30.402 52.456V59.036H29.254V46.492H30.402V51.504H32.474V52.456H30.402ZM26.552 54.794C27.21 54.752 27.854 54.71 28.47 54.612L28.554 55.466C25.936 55.872 22.926 55.928 20.728 55.928L20.588 54.962H21.4C21.666 54.962 21.96 54.962 22.254 54.948V48.76H20.91V47.836H27.896V48.76H26.552V54.794ZM23.374 54.934C24.046 54.92 24.746 54.906 25.432 54.864V48.76H23.374V54.934ZM42.3569 52.918V46.478H43.5049V52.918H42.3569ZM39.9769 49.726C39.9769 51.364 38.5909 52.498 36.7289 52.498C34.8669 52.498 33.4949 51.364 33.4949 49.726C33.4949 48.06 34.8669 46.926 36.7289 46.926C38.5909 46.926 39.9769 48.06 39.9769 49.726ZM34.6009 49.726C34.6009 50.79 35.5109 51.574 36.7289 51.574C37.9609 51.574 38.8569 50.79 38.8569 49.726C38.8569 48.648 37.9609 47.864 36.7289 47.864C35.5109 47.864 34.6009 48.648 34.6009 49.726ZM43.9249 58.868H35.3989V55.718H42.3709V54.444H35.3709V53.534H43.5049V56.572H36.5329V57.958H43.9249V58.868ZM51.3298 51.042C48.5718 51.042 46.9198 50.286 46.9198 48.872C46.9198 47.458 48.5718 46.688 51.3298 46.688C54.0878 46.688 55.7398 47.458 55.7398 48.872C55.7398 50.286 54.0878 51.042 51.3298 51.042ZM51.3298 47.556C49.2438 47.556 48.0958 48.032 48.0958 48.872C48.0958 49.712 49.2438 50.188 51.3298 50.188C53.4158 50.188 54.5638 49.712 54.5638 48.872C54.5638 48.032 53.4158 47.556 51.3298 47.556ZM57.0138 52.82H45.6458V51.896H57.0138V52.82ZM55.9358 58V58.896H47.0598V55.886H54.4238V54.766H47.0178V53.898H55.5578V56.726H48.1798V58H55.9358ZM67.2696 50.384V49.432H70.0136V46.492H71.1756V55.872H70.0136V50.384H67.2696ZM67.5636 53.786C66.1636 53.24 65.1136 52.162 64.5676 50.804C64.0216 52.316 62.9156 53.478 61.4456 54.08L60.8436 53.17C62.7196 52.498 63.9796 50.692 63.9796 48.788V47.234H65.1276V48.83C65.1276 50.58 66.3736 52.232 68.1656 52.904L67.5636 53.786ZM71.4696 58.756H63.0976V54.836H64.2456V57.818H71.4696V58.756ZM83.8865 54.094H82.7805V50.692H81.1005V54.01H80.0085V46.716H81.1005V49.754H82.7805V46.492H83.8865V54.094ZM79.2805 53.086C77.8245 53.38 76.6485 53.436 74.6325 53.436H73.8345V47.402H78.6785V48.326H74.9405V49.908H78.5385V50.79H74.9405V52.498C76.7325 52.498 77.8665 52.428 79.1685 52.162L79.2805 53.086ZM83.8865 54.752V59.036H82.7385V55.676H75.4445V54.752H83.8865ZM96.3874 59.022H95.2814V52.708H93.6714V58.42H92.5934V46.758H93.6714V51.77H95.2814V46.464H96.3874V59.022ZM91.9634 48.62V49.558H85.7334V48.62H88.2814V46.842H89.4154V48.62H91.9634ZM88.8554 50.398C90.4094 50.398 91.5434 51.574 91.5434 53.254C91.5434 54.962 90.4094 56.124 88.8554 56.124C87.3014 56.124 86.1674 54.962 86.1674 53.254C86.1674 51.574 87.3014 50.398 88.8554 50.398ZM88.8554 55.172C89.8214 55.172 90.5214 54.374 90.5214 53.254C90.5214 52.162 89.8214 51.364 88.8554 51.364C87.8474 51.364 87.1894 52.134 87.1894 53.254C87.1894 54.374 87.8894 55.172 88.8554 55.172ZM101.603 51.672C103.787 51.336 105.957 49.908 105.957 48.256V48.186H101.995V47.262H111.165V48.186H107.231V48.256C107.231 49.908 109.401 51.336 111.613 51.672L111.165 52.582C109.219 52.246 107.343 51.21 106.601 49.712C105.817 51.21 103.997 52.246 102.037 52.582L101.603 51.672ZM107.147 54.57V59.036H105.999V54.57H100.931V53.632H112.271L112.285 54.57H107.147ZM124.044 59.036H122.952V46.478H124.044V59.036ZM121.482 46.758V58.42H120.404V51.938H118.332V50.986H120.404V46.758H121.482ZM117.1 50.02C117.1 52.036 118.052 54.164 119.69 55.172L119.032 56.068C117.842 55.34 117.002 54.01 116.554 52.484C116.106 54.178 115.196 55.564 113.95 56.348L113.236 55.48C114.958 54.472 115.994 52.232 115.994 50.062V47.668H117.1V50.02ZM137.231 57.426H125.821V56.474H128.621V53.086C127.557 52.54 126.941 51.63 126.941 50.496C126.941 48.55 128.845 47.276 131.505 47.276C134.179 47.276 136.069 48.55 136.069 50.496C136.069 51.63 135.481 52.526 134.417 53.072V56.474H137.231V57.426ZM131.505 48.172C129.489 48.172 128.047 49.096 128.047 50.496C128.047 51.896 129.489 52.82 131.505 52.82C133.521 52.82 134.977 51.896 134.977 50.496C134.977 49.096 133.521 48.172 131.505 48.172ZM133.269 56.474V53.52C132.667 53.646 132.079 53.716 131.505 53.716C130.889 53.716 130.315 53.646 129.769 53.52V56.474H133.269Z" fill="#B8B8B8"/>
</svg>
