<svg width="400" height="50" viewBox="0 0 400 50" fill="none" xmlns="http://www.w3.org/2000/svg">
<rect width="400" height="50" rx="6" fill="#282828"/>
<path d="M183.955 24.44C181.507 24.056 179.602 22.84 178.642 21.176C177.682 22.856 175.762 24.056 173.314 24.44L172.674 23.112C175.618 22.68 177.762 20.92 177.762 19.016V18.248H179.506V19.016C179.506 20.904 181.682 22.68 184.594 23.112L183.955 24.44ZM185.155 27.144H179.41V32.248H177.762V27.144H172.098V25.8H185.155V27.144ZM196.657 21.416V17.784H198.305V26.392H196.657V22.76H194.097V21.416H196.657ZM194.113 25.928C192.513 25.368 191.377 24.248 190.753 22.84C190.113 24.44 188.913 25.688 187.185 26.312L186.337 25C188.577 24.2 189.873 22.28 189.873 20.296V20.088H186.817V18.76H194.545V20.088H191.537V20.28C191.537 22.12 192.753 23.864 194.929 24.632L194.113 25.928ZM193.505 26.776C196.513 26.776 198.369 27.784 198.369 29.512C198.369 31.24 196.513 32.248 193.505 32.248C190.481 32.248 188.625 31.24 188.625 29.512C188.625 27.784 190.481 26.776 193.505 26.776ZM193.505 30.968C195.569 30.968 196.721 30.472 196.721 29.512C196.721 28.552 195.569 28.056 193.505 28.056C191.441 28.056 190.273 28.552 190.273 29.512C190.273 30.472 191.441 30.968 193.505 30.968ZM214.016 24.968H211.792V32.248H210.128V17.784H211.792V23.592H214.016V24.968ZM205.584 20.008H208.96V21.352H200.496V20.008H203.936V17.992H205.584V20.008ZM204.784 22.376C206.832 22.376 208.368 23.768 208.368 25.752C208.368 27.736 206.832 29.128 204.784 29.128C202.688 29.128 201.2 27.736 201.2 25.752C201.2 23.768 202.688 22.376 204.784 22.376ZM204.784 27.768C205.952 27.768 206.8 26.968 206.8 25.752C206.8 24.536 205.952 23.736 204.784 23.736C203.616 23.736 202.768 24.536 202.768 25.752C202.768 26.968 203.616 27.768 204.784 27.768ZM226.735 17.784V32.232H225.087V17.784H226.735ZM222.479 19.304C222.479 23.608 220.751 27.256 215.791 29.656L214.911 28.344C218.703 26.504 220.511 23.976 220.783 20.648H215.631V19.304H222.479Z" fill="#FAFAFA"/>
</svg>
