<svg width="400" height="50" viewBox="0 0 400 50" fill="none" xmlns="http://www.w3.org/2000/svg">
<rect width="400" height="50" rx="6" fill="#282828"/>
<path d="M169.073 20.97V19.5H178.103V21.026C178.103 22.832 178.117 24.596 177.627 27.242L175.793 27.074C176.241 24.61 176.255 22.776 176.255 21.026V20.97H169.073ZM179.531 29.524H167.869V28.012H179.531V29.524ZM181.756 19.878V18.506H190.576V21.824H183.604V22.538H190.814V23.91H181.784V20.536H188.756V19.878H181.756ZM192.004 25.996H187.062V27.088H185.214V25.996H180.328V24.554H192.004V25.996ZM190.618 26.556V31.05H181.784V26.556H183.604V27.578H188.784V26.556H190.618ZM183.604 28.908V29.678H188.784V28.908H183.604ZM207.396 23.546H205.688V27.718H203.84V18.31H205.688V22.034H207.396V23.546ZM195.916 25.59V19.374H202.062V25.59H195.916ZM197.722 20.83V24.134H200.242V20.83H197.722ZM206.15 29.51V30.98H197.372V26.794H199.22V29.51H206.15ZM209.453 22.622V18.562H218.189V20.032H211.287V21.166H218.287V22.622H209.453ZM219.673 24.764H208.011V23.308H219.673V24.764ZM218.567 29.678V31.092H209.341V27.606H216.411V26.878H209.327V25.492H218.231V28.908H211.175V29.678H218.567ZM231.194 31.19H229.332V18.296H231.194V31.19ZM227.358 19.64C227.358 23.574 226.028 26.822 221.45 29.02L220.484 27.564C223.774 25.996 225.202 23.966 225.468 21.11H221.17V19.64H227.358Z" fill="#FAFAFA"/>
</svg>
