<svg width="188" height="52" viewBox="0 0 188 52" fill="none" xmlns="http://www.w3.org/2000/svg">
<rect x="0.5" y="0.5" width="186.881" height="51" rx="5.5" fill="#FAFAFA"/>
<rect x="0.5" y="0.5" width="186.881" height="51" rx="5.5" stroke="#282828"/>
<path d="M53.9039 25.7776C53.8954 25.9027 53.8232 26.0152 53.6914 26.1278C53.6403 26.1695 53.5851 26.2112 53.534 26.2487C53.4873 26.2862 53.4448 26.3237 53.398 26.3571C53.2194 26.4947 53.0323 26.5822 52.8368 26.6156C52.0842 26.7448 51.5995 26.7615 51.4082 26.6656C51.1871 26.5572 51.1276 26.1445 51.1021 25.9902V25.9402C51.0723 25.811 50.9958 25.54 50.9916 25.5358C50.9916 25.5275 50.9873 25.5233 50.9873 25.5191C50.9958 25.4941 51.0468 25.4608 51.0723 25.4399L51.1021 25.4107C51.3232 25.2148 51.5953 25.0105 51.9609 24.9605C52.0885 24.9438 52.2075 24.898 52.3223 24.8563C52.3776 24.8312 52.4329 24.8146 52.4924 24.7979C52.5859 24.7645 52.6667 24.7645 52.7305 24.7896C53.0791 24.9188 53.466 25.0939 53.7636 25.4191C53.8699 25.54 53.9209 25.6609 53.9124 25.7818L53.9039 25.7776Z" fill="#FFE888"/>
<path d="M52.6327 27.945C52.5052 28.045 52.3649 28.1743 52.2458 28.3369C52.1523 28.4661 52.012 28.512 51.8717 28.5453C51.8632 28.5453 51.8589 28.5495 51.8547 28.5495L51.404 28.6787C51.3743 28.6912 51.3275 28.7037 51.2637 28.7204H51.2467C50.8683 28.8246 50.5537 28.7829 50.2476 28.5912C49.8989 28.3744 49.7841 28.0534 49.8989 27.6615C50.0265 27.2654 50.2646 27.0236 50.6302 26.9278C50.6727 26.9153 50.711 26.8902 50.7365 26.8736C50.7493 26.8611 50.779 26.8402 50.7875 26.8402C50.8215 26.8569 50.8471 26.8986 50.8768 26.9361C50.8938 26.9611 50.9108 26.9778 50.9236 26.9945C51.1064 27.2154 51.3445 27.3238 51.6294 27.3238H51.6421C51.9015 27.3238 52.1523 27.3071 52.3436 27.2863C52.5732 27.2738 52.6838 27.3321 52.7645 27.5197C52.8241 27.6657 52.7773 27.8157 52.6285 27.9408L52.6327 27.945Z" fill="#F4D13D"/>
<path d="M49.4354 28.7038C49.4354 28.7038 49.4269 28.7122 49.4226 28.7163C49.3163 28.8664 48.9762 28.9873 48.7254 29.0415C48.7211 29.0415 48.7126 29.0457 48.6998 29.0457C48.6106 29.0832 48.5043 29.0999 48.347 29.0999C47.8453 29.1749 47.722 29.1082 47.7177 29.1082C47.7092 29.0957 47.6922 29.0832 47.6752 29.079C47.6497 29.0749 47.6157 29.0623 47.5519 29.0373C47.2755 28.9206 47.0034 28.8039 46.7313 28.6871C46.6123 28.6413 46.5825 28.5913 46.5825 28.5787C46.608 28.1702 47.0204 27.6449 47.4499 27.6366L47.7347 27.6282C47.909 27.6199 48.0748 27.6157 48.2449 27.6116C48.347 27.6074 48.4617 27.6157 48.5553 27.6616C48.6276 27.6949 48.6871 27.7033 48.7424 27.6783C48.8061 27.6532 48.8529 27.6032 48.8912 27.5157L48.9039 27.4781C48.9167 27.4406 48.9337 27.3989 48.9507 27.3614C48.9549 27.3489 48.9592 27.3489 48.9634 27.3531C48.9592 27.449 48.9804 27.524 49.0357 27.574C49.0825 27.6282 49.159 27.6532 49.2568 27.6491C49.1845 27.9492 49.2866 28.2202 49.3759 28.462C49.3929 28.512 49.4099 28.5704 49.4184 28.6288L49.4269 28.6788L49.4311 28.6955L49.4354 28.7038Z" fill="#FFE888"/>
<path d="M49.6392 26.3145C49.3119 26.6647 48.925 26.894 48.4956 26.9982C48.4148 27.0232 48.3297 27.0232 48.2362 27.0274C48.1937 27.0274 48.1469 27.0274 48.1087 27.0316C47.9088 27.0316 47.641 27.0149 47.3901 26.8773C46.965 26.6355 46.8842 25.9935 47.1053 25.6058C47.2243 25.3932 47.3731 25.2556 47.5687 25.1847C47.7855 25.1055 48.0194 25.0555 48.266 25.0388H48.3042C48.453 25.0388 48.5806 25.1014 48.6571 25.2264C48.8102 25.4807 49.0355 25.6183 49.3629 25.66C49.5415 25.6767 49.6775 25.7767 49.7328 25.9185C49.7838 26.056 49.7455 26.202 49.635 26.3229L49.6392 26.3145Z" fill="#F4D13D"/>
<path d="M51.5359 24.4346C51.2936 24.7222 50.9747 24.9015 50.6346 25.0933L50.6048 25.1099C50.3242 25.1725 50.0989 25.1558 50.0904 25.1558C49.78 25.1641 49.5334 25.1058 49.3123 24.9807C49.1252 24.8806 48.9807 24.618 48.9552 24.3429C48.9424 24.1928 48.9594 23.9051 49.2188 23.7008C49.3506 23.5924 49.4739 23.5216 49.5929 23.4715L49.6737 23.434C49.6737 23.434 49.848 23.3381 50.1329 23.3381C50.1499 23.3381 50.1711 23.3423 50.1882 23.3423C50.32 23.359 50.4518 23.3673 50.575 23.3715C50.6728 23.3757 50.7749 23.3757 50.8769 23.384C50.9364 23.3923 50.9832 23.3965 51.0087 23.4007C51.013 23.4048 51.0215 23.409 51.0342 23.409C51.0725 23.4173 51.2 23.459 51.3531 23.5966C51.5317 23.7592 51.5529 23.8176 51.5784 23.8801C51.5784 23.8884 51.5827 23.8968 51.5869 23.9051C51.723 24.0719 51.7102 24.222 51.5359 24.4346Z" fill="#F4D13D"/>
<path d="M62.8406 25.9231C62.7938 25.7605 62.696 25.6563 62.5387 25.6021C62.3899 25.5521 62.2454 25.5062 62.1051 25.4395C61.6119 25.2102 61.0719 24.9851 60.4937 24.8809C60.111 24.81 59.7156 24.7475 59.3372 24.6891C58.9673 24.6307 58.5805 24.5724 58.2063 24.5057C57.6323 24.4014 57.0201 24.3598 56.3951 24.3806C56.7352 24.1638 56.9436 23.8428 57.1009 23.5593C57.1519 23.4718 57.1987 23.3801 57.2454 23.2925C57.2964 23.1966 57.3475 23.1007 57.4027 23.009C57.6281 22.613 57.5983 22.2669 57.3007 21.9293C57.1817 21.7917 57.0414 21.7458 56.867 21.7833C56.4546 21.8667 56.038 22.0001 55.5065 22.2044C55.3364 22.2711 55.1621 22.3295 54.9921 22.3795C54.6604 22.4879 54.316 22.5963 53.9972 22.7964C54.0014 22.7881 54.0014 22.7797 54.0057 22.7756L54.0184 22.7464C54.112 22.5046 54.2055 22.2669 54.299 22.0251C54.4819 21.5666 54.6689 21.0913 54.839 20.616C54.9708 20.2492 55.0941 19.874 55.2131 19.5113C55.362 19.0652 55.5108 18.6024 55.6766 18.1564C55.8721 17.6311 55.8254 17.1558 55.5363 16.7097C55.464 16.6013 55.3577 16.4346 55.1451 16.4137C54.6944 16.3762 54.3373 16.5096 54.095 16.8181L54.0269 16.9015C53.7888 17.2017 53.5422 17.5102 53.2786 17.7978C53.015 18.0855 52.7259 18.3648 52.4496 18.6358C52.1775 18.8943 51.9011 19.1652 51.6418 19.4446C51.6333 19.4529 51.6248 19.4612 51.6163 19.4696C51.612 19.4696 51.612 19.4738 51.6078 19.4738C51.5482 19.2903 51.4845 19.1111 51.4207 18.9318C51.3654 18.7775 51.3101 18.6233 51.2591 18.469C51.1528 18.1647 50.9913 17.8854 50.7787 17.6436C50.5236 17.3559 50.2302 17.3142 49.9028 17.5143C49.4224 17.8103 49.0695 18.2648 48.8272 18.9068C48.5976 19.5071 48.5976 20.1324 48.6103 20.7244C48.6146 20.8036 48.6146 20.8787 48.6146 20.9579C48.5933 20.912 48.5763 20.8662 48.5551 20.8203C48.4445 20.5535 48.3255 20.2742 48.1427 20.0324C48.0279 19.8865 47.9131 19.7447 47.794 19.5988C47.6325 19.3987 47.4667 19.1944 47.3093 18.986C46.8289 18.3231 46.2507 17.6853 45.4386 16.914C45.0475 16.5472 44.6223 16.1719 44.0568 15.6967C43.9931 15.6467 43.9335 15.5925 43.874 15.5424C43.6997 15.3924 43.5211 15.2381 43.3298 15.1047C43.2575 15.0588 43.0492 14.9171 42.8536 15.0672C42.5603 15.2965 42.4114 15.5508 42.3944 15.8426C42.3774 16.1469 42.4157 16.4554 42.454 16.7181C42.5092 17.0808 42.607 17.4268 42.7346 17.8395C42.8409 18.1814 42.9599 18.5441 43.1385 18.8859C43.283 19.1486 43.4361 19.4362 43.5381 19.7447C43.6359 20.0449 43.7762 20.3576 43.9761 20.7328C44.2184 21.1872 44.499 21.6249 44.7711 22.0502C44.8902 22.2378 45.0092 22.4212 45.1282 22.613C45.2175 22.7505 45.3068 22.9048 45.3918 23.0757C45.3621 23.059 45.3323 23.0424 45.2983 23.0299C44.5543 22.7005 43.8655 22.4921 43.1937 22.392C43.1512 22.3837 43.1045 22.3795 43.0577 22.3753L42.9684 22.3628C42.2541 22.2544 41.6036 22.2795 40.9786 22.4295C40.8766 22.4545 40.7873 22.5046 40.7065 22.5754C40.4812 22.7756 40.4429 23.2341 40.63 23.5343C40.8298 23.8595 41.1232 24.1013 41.4038 24.3306L41.4506 24.3681C41.5016 24.414 41.5569 24.4598 41.6079 24.5057C41.8035 24.6724 42.0075 24.8392 42.2286 24.9893C42.0543 24.9559 41.8842 24.9392 41.7099 24.9392C41.0637 24.9392 40.5322 25.2269 40.1283 25.798C40.022 25.9481 39.9795 26.1107 40.0093 26.2608C40.039 26.4192 40.1453 26.561 40.3154 26.6735C40.4089 26.7361 40.5152 26.7861 40.6215 26.8361C40.8724 26.9528 41.1274 27.0612 41.374 27.1488C41.6121 27.2363 41.8162 27.3781 42.0288 27.5282C42.0926 27.574 42.1606 27.6199 42.2244 27.6616C42.5007 27.845 42.7856 27.945 43.0917 27.9659C43.1342 27.9659 43.1767 27.9701 43.2193 27.9742C43.2958 27.9784 43.3723 27.9867 43.4446 27.9867C43.4276 27.9992 43.4148 28.0118 43.3978 28.0243C43.3383 28.0618 43.2788 28.1035 43.2235 28.1452C42.7303 28.5245 42.2499 28.9789 41.6674 29.6251C41.1317 30.2213 40.7235 30.8842 40.4599 31.5929C40.1666 32.385 40.1156 33.0979 40.3069 33.7649C40.4599 34.2985 40.5662 34.557 41.3358 34.6029C41.7907 34.6279 42.0671 34.4778 42.2371 34.1151C42.3349 33.9025 42.4965 33.7149 42.7261 33.5398C42.9514 33.373 43.164 33.1604 43.3596 32.9103C43.7635 32.385 44.3162 31.7096 44.9837 31.1385C45.0135 31.1134 45.0475 31.0884 45.0815 31.0676C45.0942 31.0593 45.1112 31.0467 45.124 31.0384L45.0985 31.1301C45.0517 31.2844 45.005 31.4428 44.9667 31.6012C44.8094 32.2391 44.7073 32.9144 44.6691 33.6148C44.6223 34.4653 44.6351 35.1698 44.7073 35.8369C44.7413 36.1245 44.8136 36.4956 45.0645 36.8124L45.0815 36.8332C45.141 36.9083 45.2175 37 45.3451 37H45.3621C45.6172 36.9792 45.9446 36.925 46.1912 36.654C46.2549 36.5831 46.3187 36.5122 46.3782 36.4414C46.442 36.3705 46.5015 36.2996 46.5653 36.2329L46.7014 36.0828C46.9947 35.7577 47.2966 35.42 47.5347 35.0406C47.5474 35.0198 47.5559 35.0114 47.5559 35.0072C47.5602 35.0114 47.5687 35.0198 47.5772 35.0364C47.607 35.0865 47.6452 35.1281 47.6835 35.1698L47.7047 35.1948C47.7643 35.2574 47.8195 35.2866 47.8833 35.2907C47.9386 35.2949 47.9981 35.2657 48.0534 35.2157C48.1172 35.1573 48.1809 35.1031 48.2447 35.0489C48.4955 34.828 48.7549 34.6029 48.9165 34.2818C48.942 34.236 48.976 34.1901 49.0228 34.1443C49.0355 34.1276 49.3161 33.7566 49.4267 33.5481L49.4352 33.5356C49.4352 33.5356 49.4437 33.5148 49.4479 33.5106C49.6095 33.1646 49.703 32.8477 49.737 32.5476C49.7413 32.5059 49.754 32.4725 49.788 32.4308C49.8178 32.3975 49.8603 32.3475 49.8943 32.3391C49.9454 32.4475 50.2982 33.1646 50.5278 33.4481C50.5406 33.4647 50.5533 33.4814 50.5661 33.4981L50.5959 33.5314C50.7447 33.7232 50.8977 33.9191 51.0635 34.1026C51.5482 34.632 52.0754 35.1907 52.7089 35.6451C53.2659 36.0453 53.8186 36.2996 54.3968 36.4163C54.7667 36.4956 55.1069 36.2162 55.1791 35.9202C55.2344 35.6868 55.1919 35.47 55.1366 35.249C55.0856 35.0489 55.0388 34.8488 54.9921 34.6445C54.9155 34.3277 54.839 33.9984 54.754 33.6773C54.5754 33.0187 54.3416 32.2557 53.9206 31.5512L53.9589 31.5637C54.0184 31.5887 54.078 31.6096 54.1417 31.6346L54.2905 31.6888C54.5967 31.8055 54.9113 31.9222 55.2344 32.0056C55.8381 32.1557 56.4334 32.1432 57.0966 32.1098C57.5005 32.0932 57.8534 31.9514 58.1468 31.6888C58.2488 31.6012 58.2743 31.5012 58.2233 31.3761C58.185 31.2802 58.1213 31.2093 58.0532 31.1426L58.0192 31.1009C57.9129 30.9884 57.8109 30.8758 57.7046 30.7633C57.492 30.5381 57.2709 30.3088 57.0796 30.0629C57.0243 29.9878 56.9648 29.917 56.9096 29.8419C56.6757 29.5376 56.4334 29.2249 56.1528 28.9456C56.0762 28.8706 56.0125 28.783 55.9444 28.6913L55.8934 28.6246C55.8934 28.6246 55.8892 28.6162 55.8849 28.6162H55.8934C56.2888 28.6579 56.6842 28.6413 57.0966 28.5621C57.7344 28.4453 58.3679 28.3494 58.9844 28.2619C59.1417 28.2369 59.2947 28.216 59.452 28.1952C59.7794 28.1493 60.1195 28.1035 60.4512 28.0368C60.6042 28.0076 60.7445 27.9492 60.8848 27.8867C61.1654 27.7574 61.4035 27.6616 61.6416 27.5907C61.9222 27.499 62.2794 27.3572 62.5345 27.0487C62.8448 26.6777 62.9469 26.3108 62.8406 25.9231ZM55.0899 22.8589L55.1791 22.8298C55.3279 22.7756 55.4725 22.7255 55.6171 22.6755C55.9742 22.5546 56.3483 22.4254 56.7055 22.2753C56.7778 22.2419 56.8458 22.2419 56.8968 22.2753C56.9606 22.317 56.9988 22.4129 56.9988 22.5296C56.9988 22.6296 56.9223 22.7547 56.8713 22.8381C56.6417 23.2258 56.3696 23.676 56.0592 24.0888C55.9189 24.2847 55.7233 24.414 55.4767 24.4765C55.3917 24.5015 55.3067 24.5223 55.2217 24.5432C54.958 24.6057 54.6902 24.6683 54.4393 24.7933C54.0227 25.0059 53.7208 25.2227 53.487 25.4812L53.4657 25.5062L53.4275 25.5437C53.3127 25.6605 53.3127 25.6646 53.1979 25.5646C52.8832 25.3061 52.6111 25.156 52.3263 25.0768C52.3305 25.0726 52.3348 25.0726 52.339 25.0685C52.4283 25.0018 52.5134 24.9351 52.6026 24.8684L52.7727 24.7433C52.93 24.6224 53.0661 24.4765 53.1936 24.3347C53.2744 24.2472 53.3594 24.1596 53.4445 24.0763C53.4955 24.0304 53.5508 23.9887 53.606 23.947C53.7208 23.8595 53.8356 23.7719 53.9079 23.6469C54.1672 23.1841 54.6179 23.0257 55.0899 22.8589ZM49.0185 26.1983C49.1801 26.2149 49.3034 26.3025 49.3544 26.4317C49.4011 26.5568 49.3671 26.6902 49.2651 26.7986C48.9675 27.1154 48.6188 27.3239 48.2277 27.4198C48.1554 27.4406 48.0789 27.4406 47.9939 27.4448C47.9556 27.4448 47.9131 27.4448 47.8791 27.4489C47.6962 27.4489 47.4539 27.4323 47.2286 27.3072C46.8417 27.0862 46.7694 26.5068 46.9692 26.1524C47.0755 25.9606 47.2116 25.8356 47.3901 25.7689C47.5857 25.698 47.7983 25.6521 48.0236 25.6355H48.0576C48.1937 25.6355 48.3085 25.6938 48.3765 25.8064C48.5168 26.0357 48.7209 26.1607 49.0185 26.1983ZM48.8867 24.4265C49.0057 24.3264 49.1163 24.2639 49.2268 24.218L49.2991 24.1847C49.2991 24.1847 49.4564 24.0971 49.7158 24.0971C49.7328 24.0971 49.7498 24.1013 49.7668 24.1013C49.8858 24.118 50.0049 24.1221 50.1197 24.1263C50.209 24.1263 50.3025 24.1263 50.3918 24.1388C50.4471 24.1471 50.4896 24.1513 50.5108 24.1555C50.5108 24.1555 50.5236 24.1638 50.5321 24.1638C50.5661 24.1722 50.6809 24.2097 50.8212 24.3347C50.9828 24.4807 51.004 24.5349 51.0253 24.5932C51.0253 24.6016 51.0295 24.6099 51.0338 24.6141C51.1571 24.7641 51.1443 24.9017 50.987 25.0935C50.7659 25.3561 50.4768 25.5187 50.1707 25.6896L50.1452 25.7063C49.8901 25.7647 49.686 25.748 49.6775 25.748C49.3969 25.7564 49.1716 25.7022 48.9717 25.5896C48.8017 25.4979 48.6699 25.2602 48.6486 25.0101C48.6358 24.8725 48.6529 24.6141 48.8867 24.4265ZM49.6265 26.9237C49.737 26.7027 49.771 26.5068 49.737 26.3067C49.7328 26.2858 49.7328 26.2775 49.7285 26.2733H49.7668C49.7923 26.2733 49.8221 26.2775 49.8476 26.2691C50.0134 26.2691 50.0389 26.2858 50.0857 26.4276C50.1197 26.5234 50.1452 26.6235 50.1664 26.7235L50.1877 26.8153C50.1962 26.8403 50.192 26.8611 50.1537 26.8778L50.1154 26.8945C50.0474 26.9278 49.9794 26.9612 49.9113 26.9779C49.6945 27.0321 49.5117 27.1446 49.3459 27.3155L49.3246 27.3364C49.2736 27.3906 49.2268 27.4406 49.1631 27.4656C49.3714 27.3155 49.5287 27.1321 49.6265 26.9237ZM49.4989 28.0201C49.6137 27.6616 49.8306 27.4406 50.1622 27.3531C50.2005 27.3406 50.2345 27.3197 50.26 27.303C50.2727 27.2905 50.2982 27.2738 50.3067 27.2738C50.3365 27.2905 50.362 27.328 50.3875 27.3614C50.4045 27.3822 50.4173 27.3989 50.43 27.4156C50.5959 27.6157 50.8127 27.7158 51.072 27.7158H51.0848C51.3186 27.7158 51.5482 27.6991 51.7225 27.6824C51.9309 27.6699 52.0329 27.7241 52.1052 27.895C52.1605 28.0284 52.118 28.1618 51.9819 28.2786C51.8671 28.3703 51.7396 28.487 51.629 28.6329C51.544 28.7497 51.4164 28.7913 51.2889 28.8205C51.2804 28.8205 51.2761 28.8247 51.2719 28.8247L50.8637 28.9414C50.8382 28.9539 50.7957 28.9623 50.7362 28.9789H50.7192C50.3748 29.0748 50.0899 29.0373 49.8136 28.8622C49.4989 28.6663 49.3926 28.3745 49.4989 28.0201ZM50.868 27.1154C50.6681 27.0154 50.6129 26.6443 50.5916 26.5026V26.4567C50.5661 26.34 50.4938 26.094 50.4896 26.0899C50.4896 26.0815 50.4896 26.0774 50.4896 26.0732C50.4981 26.0523 50.5448 26.019 50.5661 26.0023L50.5916 25.9773C50.7914 25.798 51.038 25.6146 51.3697 25.5688C51.4845 25.5521 51.595 25.5104 51.697 25.4729C51.7481 25.452 51.7991 25.4353 51.8501 25.4187C51.9351 25.3895 52.0074 25.3895 52.0669 25.4103C52.3816 25.5271 52.7344 25.6855 53.0023 25.9815C53.1001 26.0899 53.1468 26.2024 53.1383 26.3108C53.1298 26.4234 53.0661 26.5276 52.947 26.6277C52.9002 26.6652 52.8492 26.7027 52.8025 26.7361C52.7599 26.7694 52.7217 26.8028 52.6792 26.8361C52.5176 26.9612 52.3475 27.0404 52.169 27.0696C51.4845 27.1863 51.0465 27.203 50.8722 27.1154H50.868ZM52.3603 28.2369C52.373 28.1827 52.3943 28.1243 52.4241 28.0701C52.4751 27.9826 52.5304 27.87 52.5304 27.7324C52.5304 27.6657 52.5176 27.5949 52.4836 27.5198C52.5984 27.4364 52.7089 27.3572 52.8195 27.2697C52.8662 27.2363 52.9173 27.2238 52.9683 27.2405C53.0448 27.2572 53.1001 27.3072 53.1256 27.3864C53.1256 27.3864 53.1681 27.4656 53.1724 27.6074C53.1724 27.7491 53.1341 27.8575 53.0576 27.9242C53.0491 27.9284 53.0448 27.9325 53.0363 27.9367C53.0363 27.9367 53.0235 27.9492 53.015 27.9534C52.9683 27.9867 52.9215 28.0243 52.8747 28.0576C52.7557 28.1535 52.6367 28.241 52.4921 28.2702L52.4028 28.2827C52.3688 28.2911 52.3603 28.2786 52.3603 28.2786C52.3603 28.2786 52.3518 28.2702 52.3603 28.2369ZM51.3612 20.4826C51.3612 20.4826 51.3824 20.466 51.3867 20.4576L51.8246 19.924L51.9011 19.849L52.4793 19.3028C52.5984 19.1736 52.7259 19.0527 52.8535 18.936C52.9938 18.8109 53.1341 18.6775 53.2616 18.5357C53.4232 18.3565 53.589 18.1814 53.7548 18.0105C53.8229 17.9396 53.8909 17.8645 53.9589 17.7937C54.1205 17.6227 54.248 17.4393 54.3458 17.2517C54.4479 17.0516 54.7752 16.864 55.0091 16.8765C55.0431 16.8807 55.0643 16.8932 55.0899 16.9349C55.2302 17.1475 55.2982 17.3518 55.2982 17.5644C55.2982 17.7103 55.2684 17.8479 55.2089 17.9771C54.9495 18.5733 54.7582 19.2028 54.5754 19.8114C54.5371 19.9323 54.4989 20.0532 54.4649 20.1741C54.18 21.0955 53.8229 22.1794 53.3467 23.2008C53.1596 23.6093 52.9768 23.972 52.6707 24.2639C52.5601 24.3723 52.4326 24.4932 52.288 24.5807C52.0882 24.6974 51.8884 24.8392 51.697 25.0059C51.6035 25.0852 51.493 25.1018 51.3697 25.1185C51.3824 25.0726 51.3994 25.031 51.4207 24.9893C51.578 24.6141 51.51 24.3556 51.1868 24.1013C50.9828 23.9429 50.7617 23.7803 50.4683 23.7469C50.3833 23.7344 50.3195 23.6719 50.2642 23.5426C50.1282 23.23 50.0942 22.909 50.1622 22.5963C50.3067 21.9418 50.6171 21.3456 51.0763 20.8245C51.1443 20.7536 51.2038 20.6744 51.2506 20.5952C51.2804 20.5452 51.3186 20.5035 51.3612 20.4826ZM48.9717 20.6536C48.9717 20.5535 48.9802 20.4535 48.9802 20.3534C48.9887 20.2992 49.027 20.0366 49.0695 19.7989L49.0908 19.6697C49.1716 19.232 49.2523 18.8192 49.5372 18.4732C49.7158 18.2564 49.9326 18.0855 50.1834 17.9688C50.2642 17.9271 50.3918 17.8979 50.5448 18.073C50.6511 18.1981 50.7404 18.344 50.8042 18.5149C50.9147 18.8067 51.021 19.0985 51.1273 19.3945L51.2166 19.6488C51.2719 19.7906 51.2506 19.8906 51.1528 19.9949C50.8595 20.3159 50.4938 20.7161 50.226 21.1622C49.8816 21.7417 49.6903 22.2461 49.6265 22.7464C49.5797 23.1049 49.6307 23.4384 49.7838 23.7261C49.788 23.7386 49.7966 23.7511 49.7966 23.7594H49.771C49.7115 23.7553 49.6562 23.7636 49.5925 23.7678C49.567 23.7719 49.5414 23.7719 49.4989 23.7803C49.4692 23.7844 49.4607 23.7844 49.4607 23.7844C49.4607 23.7844 49.4522 23.7678 49.4522 23.7219C49.4522 23.3801 49.3926 23.0465 49.2693 22.7005C49.0908 22.2044 49.0228 21.6791 48.976 21.2289C48.959 21.0413 48.9675 20.8412 48.976 20.6536H48.9717ZM41.4506 23.6469C41.3188 23.5343 41.1955 23.4009 41.0892 23.2508C41.0297 23.1758 41.0084 23.1132 41.0254 23.0632C41.0382 23.0132 41.0934 22.9673 41.187 22.9256C41.5739 22.7714 41.9905 22.6838 42.4327 22.6755C42.4625 22.6755 42.488 22.6713 42.5135 22.6713C42.9769 22.6713 43.4658 22.7714 44.0313 22.9715C44.1249 23.0048 44.2141 23.0382 44.3034 23.0674C44.5458 23.1508 44.7966 23.2341 45.0305 23.355C45.3451 23.5093 45.6299 23.7219 45.902 23.9262C45.9616 23.972 46.0168 24.0137 46.0764 24.0554C46.1316 24.0971 46.1912 24.143 46.2464 24.1847C46.3655 24.2764 46.4888 24.3681 46.6163 24.4515C46.8629 24.6182 47.1265 24.7058 47.4071 24.7141H47.5687C47.6877 24.7225 47.811 24.7225 47.9343 24.7225C48.0066 24.7225 48.0704 24.6891 48.1001 24.6349C48.1299 24.5849 48.1257 24.514 48.0831 24.4473C48.0194 24.3431 47.9216 24.2805 47.8068 24.2764C47.152 24.2389 46.7184 23.847 46.3442 23.4301C46.0679 23.1257 45.8638 22.7672 45.664 22.417L45.6299 22.3587C45.3748 21.9126 45.0857 21.4707 44.8094 21.0454C44.7243 20.9162 44.6393 20.787 44.5543 20.6536C44.4395 20.4743 44.3502 20.295 44.2907 20.1199C44.1631 19.7281 43.9888 19.3487 43.8187 18.986C43.755 18.8526 43.6912 18.715 43.6317 18.5816C43.5254 18.344 43.4361 18.098 43.3511 17.8562L43.2745 17.6311C43.181 17.3768 43.1215 17.1225 43.0577 16.8348C42.9854 16.5221 42.9557 16.1886 42.9642 15.8134C42.9642 15.7384 42.9769 15.6758 43.0024 15.6175C43.0279 15.5549 43.0492 15.5424 43.0619 15.5383C43.0704 15.5383 43.0917 15.5383 43.147 15.5716C43.3 15.6675 43.4488 15.7884 43.5892 15.901C43.6402 15.9427 43.6912 15.9843 43.738 16.026C44.6393 16.7473 45.2983 17.3351 45.868 17.9437C46.3527 18.4524 46.8332 19.0235 47.3944 19.7364C48.0109 20.5285 48.3595 21.4206 48.6231 22.1919C48.6571 22.292 48.6911 22.392 48.7294 22.4879C48.8229 22.738 48.9207 22.9965 48.959 23.2633C48.976 23.3967 48.993 23.5385 48.9845 23.6844C48.9717 23.9137 48.8654 24.0804 48.6741 24.1763C48.2362 24.4014 48.2107 24.7975 48.2319 25.0726V25.0977C48.2362 25.1393 48.2404 25.181 48.2362 25.1894C48.2277 25.1977 48.1724 25.2102 48.1299 25.2144C47.6537 25.2978 47.2796 25.427 46.9565 25.6271C46.8799 25.6688 46.8289 25.7188 46.7864 25.7772C46.6971 25.9106 46.5611 25.9815 46.374 25.9898C46.0296 26.0065 45.7192 25.9773 45.4301 25.8939C45.3068 25.8564 45.1878 25.8231 45.0645 25.7897C44.8094 25.7188 44.5458 25.6438 44.2907 25.5604C43.8485 25.4103 43.4106 25.1644 42.9429 24.81L42.6793 24.6141C42.2711 24.3056 41.846 23.9846 41.4506 23.6469ZM43.13 27.4698C42.7601 27.4615 42.4837 27.2447 42.2541 27.0446C42.2541 27.0446 42.2456 27.0362 42.2414 27.0362C42.1181 26.9112 41.778 26.7652 41.5058 26.6568C41.5016 26.6568 41.4931 26.6527 41.4888 26.6527C41.3783 26.6277 41.272 26.5943 41.1657 26.5443C41.0127 26.4692 40.8426 26.3984 40.647 26.3275C40.5875 26.3067 40.5492 26.2816 40.5407 26.2566C40.528 26.2316 40.5407 26.1858 40.5705 26.1274C40.6853 25.9023 40.8766 25.7272 41.1912 25.5604C41.3783 25.4645 41.5909 25.4103 41.778 25.4103H41.829C42.0501 25.4103 42.1989 25.4395 42.3264 25.5146C42.5773 25.6563 42.8536 25.7147 43.1215 25.7647L43.2022 25.7814C43.4021 25.8231 43.5934 25.9064 43.7762 25.9856C43.8315 26.0107 43.891 26.0357 43.9463 26.0565C44.6393 26.3483 45.3876 26.5109 46.1699 26.5443H46.2082C46.2082 26.5443 46.2379 26.5443 46.2464 26.5485C46.2804 26.5568 46.3145 26.5526 46.3485 26.5485C46.408 26.5443 46.4122 26.5485 46.4207 26.5735C46.4633 26.6819 46.4207 26.8278 46.3442 26.8903C46.2592 26.957 46.1529 26.9695 46.0381 26.982H46.0041C45.7702 27.0154 45.5747 27.0654 45.4003 27.1321C45.1623 27.228 44.9242 27.3197 44.6861 27.4114C44.499 27.4823 44.3162 27.5573 44.1291 27.6282C44.0866 27.6449 44.0653 27.6491 44.0441 27.6407C43.7465 27.5073 43.4276 27.4781 43.13 27.4698ZM44.7839 30.5923C44.1419 31.1218 43.5977 31.7471 43.147 32.2849C42.8621 32.6351 42.5432 32.9561 42.2414 33.2479C42.0075 33.4731 41.8247 33.6982 41.6887 33.9317C41.6079 34.0651 41.5058 34.1234 41.3613 34.1068C40.9659 34.0692 40.8766 34.0275 40.7916 33.6607C40.7405 33.4272 40.7278 33.1896 40.7235 32.9061C40.7065 32.5309 40.8426 32.114 40.9659 31.793C41.289 30.9258 41.8545 30.1254 42.6835 29.3375C43.3808 28.6788 44.0781 28.2035 44.8179 27.8742C45.3111 27.6574 45.7362 27.5448 46.1529 27.5198C46.1954 27.5198 46.2464 27.5198 46.2932 27.4948C46.3357 27.474 46.374 27.4656 46.4165 27.4656C46.4973 27.4656 46.5781 27.5073 46.6843 27.6032C46.7396 27.6532 46.8034 27.7074 46.8034 27.7283C46.8034 27.7491 46.7354 27.8158 46.6843 27.8617C46.4973 28.0409 46.34 28.241 46.2209 28.4537C45.9743 28.8956 46.0168 29.2207 46.3655 29.5751C46.3867 29.596 46.391 29.6043 46.3952 29.6085C46.391 29.6085 46.3867 29.6168 46.3655 29.6335C46.3102 29.671 46.2464 29.7043 46.1656 29.7335C45.6214 29.9295 45.1665 30.2797 44.7839 30.5923ZM47.0585 34.8572C46.9905 34.9364 46.9267 35.0239 46.8672 35.1073C46.8374 35.149 46.8076 35.1907 46.7736 35.2324C46.4718 35.6284 46.1571 35.9869 45.834 36.308C45.7915 36.3496 45.7405 36.3913 45.6767 36.4372C45.5577 36.5164 45.5194 36.5122 45.4344 36.3997C45.3238 36.2579 45.2558 36.087 45.226 35.8786C45.1878 35.6368 45.1793 35.3866 45.1665 35.1448C45.158 34.9697 45.1495 34.7946 45.1325 34.6195C45.1027 34.2068 45.1155 33.7816 45.1708 33.3522C45.1878 33.2063 45.2048 33.0603 45.2218 32.9103C45.2685 32.4642 45.3196 32.0014 45.4471 31.5595C45.5747 31.126 45.732 30.8008 45.9531 30.5381C46.0551 30.4089 46.1656 30.3297 46.2932 30.288C46.5355 30.213 46.7184 30.0629 46.8884 29.917C46.9607 29.8503 47.0245 29.8211 47.0925 29.8211C47.1138 29.8211 47.135 29.8252 47.1605 29.8336C47.2286 29.8503 47.2371 29.8794 47.2286 29.9253C47.2243 29.9503 47.2201 29.9753 47.2158 30.0003C47.2116 30.042 47.203 30.0837 47.1903 30.1254C47.0883 30.4756 47.05 30.83 47.0245 31.2552C46.999 31.7221 46.9862 32.1057 46.9862 32.4642C46.9905 33.0145 47.067 33.5356 47.2116 34.015C47.3178 34.3569 47.2711 34.6154 47.0585 34.8572ZM47.3731 29.2749C47.1223 29.1707 46.8757 29.0623 46.6291 28.9581C46.5228 28.9164 46.493 28.8706 46.493 28.858C46.5143 28.487 46.8884 28.0118 47.2796 28.0034L47.5389 27.9951C47.6962 27.9867 47.8493 27.9826 48.0024 27.9784C48.0959 27.9742 48.1979 27.9826 48.283 28.0243C48.3467 28.0534 48.402 28.0618 48.453 28.0409C48.5126 28.0201 48.5551 27.9742 48.5891 27.895L48.6018 27.8617C48.6146 27.8283 48.6273 27.7908 48.6444 27.7574C48.6486 27.7449 48.6529 27.7449 48.6571 27.7491C48.6571 27.8367 48.6741 27.9034 48.7209 27.9492C48.7634 27.9992 48.8314 28.0201 48.9207 28.0159C48.8569 28.2869 48.9462 28.5329 49.027 28.7538C49.044 28.7997 49.0568 28.8539 49.0653 28.9039L49.0738 28.9498L49.078 28.9664C49.0738 28.9706 49.0695 28.9748 49.0653 28.9789C48.9675 29.1165 48.6614 29.2249 48.4318 29.2749C48.4275 29.2749 48.419 29.2791 48.4105 29.2791C48.3297 29.3125 48.2319 29.3291 48.0916 29.3291C47.6367 29.3958 47.5262 29.3375 47.5219 29.3375C47.5134 29.325 47.5007 29.3166 47.4837 29.3125C47.4624 29.3083 47.4284 29.2958 47.3731 29.2749ZM49.2183 32.7602C48.9505 33.4314 48.5678 34.0275 48.0746 34.532C48.0704 34.532 48.0619 34.5445 48.0619 34.5445C48.0449 34.557 48.0321 34.5737 48.0151 34.5862C47.9981 34.607 47.9598 34.6404 47.9513 34.6445C47.9301 34.632 47.9173 34.6154 47.9088 34.5945C47.9088 34.582 47.9088 34.5862 47.9003 34.5778C47.8195 34.4111 47.7175 33.9775 47.6835 33.8441C47.5474 33.2855 47.4837 32.7185 47.5007 32.1599C47.5049 32.0223 47.5049 31.8847 47.5049 31.7471C47.5049 31.522 47.5049 31.2927 47.5219 31.0676C47.5517 30.6882 47.6537 30.3172 47.743 30.0379C47.7855 29.9086 47.8365 29.8794 48.0236 29.8794H48.0831C48.1724 29.8878 48.2702 29.8919 48.283 29.9045C48.2915 29.917 48.2872 29.9795 48.2872 30.0337C48.283 30.0629 48.283 30.0962 48.283 30.1296C48.266 30.7341 48.4998 31.2635 48.7464 31.7596C48.7506 31.7721 48.7591 31.7888 48.7676 31.8013C48.7889 31.8305 48.8059 31.8597 48.8144 31.893C48.8569 32.0348 48.959 32.1223 49.0398 32.1807C49.2651 32.3433 49.3161 32.51 49.2183 32.7602ZM49.9284 31.1802L49.8901 31.2635C49.8008 31.4636 49.7073 31.6679 49.567 31.843C49.5287 31.893 49.4819 31.9181 49.4394 31.9181H49.4309C49.3884 31.9139 49.3501 31.8847 49.3246 31.8347C49.0908 31.3803 48.8484 30.9092 48.7464 30.3881C48.6741 30.0003 48.7549 29.7335 49.0142 29.5292C49.061 29.4917 49.1035 29.4542 49.146 29.4167C49.1843 29.3792 49.2183 29.3458 49.2608 29.3125C49.2949 29.2875 49.3246 29.2749 49.3586 29.2749C49.3884 29.2749 49.4224 29.2874 49.4522 29.3166C49.567 29.4209 49.6945 29.4834 49.8603 29.5126C50.0219 29.5418 50.1154 29.6501 50.1409 29.8378C50.1494 29.9128 50.1579 29.9962 50.1622 30.0754C50.1664 30.1171 50.1707 30.1629 50.1707 30.2004C50.1877 30.5673 50.0602 30.9008 49.9284 31.1802ZM54.5882 34.9697L54.6052 35.0448C54.6604 35.2782 54.7115 35.495 54.737 35.7076C54.737 35.8077 54.7072 35.8827 54.6519 35.9244C54.6009 35.9578 54.5329 35.9619 54.4521 35.9369C54.2098 35.8577 53.9547 35.7702 53.64 35.6576C53.487 35.6034 53.3467 35.5159 53.1766 35.3741C53.0236 35.2407 52.862 35.1156 52.7047 34.9906C52.3901 34.7446 52.0669 34.4861 51.7948 34.1818C51.2974 33.6148 50.8595 33.0937 50.5193 32.485C50.4343 32.3266 50.3833 32.1557 50.328 31.9764C50.2982 31.8639 50.2642 31.7471 50.2175 31.6387C50.2047 31.5929 50.2302 31.5387 50.2472 31.5137C50.5406 31.0384 50.6511 30.4923 50.6044 29.7502C50.5916 29.5501 50.6171 29.5167 50.8255 29.4709C50.902 29.45 50.9828 29.4375 51.0635 29.4209C51.1231 29.4125 51.1868 29.4 51.2464 29.3875C51.3909 29.3583 51.5142 29.2874 51.6375 29.2166L51.6885 29.1916C51.6885 29.1916 51.7055 29.1791 51.7098 29.1791C51.7098 29.1791 51.7098 29.1818 51.7098 29.1874C51.8033 29.5709 52.0329 29.8794 52.2583 30.1754L52.2923 30.2255C52.4156 30.3839 52.5304 30.534 52.6239 30.7007C52.6579 30.7591 52.6962 30.8175 52.7599 30.855C53.1298 31.0718 53.3084 31.4261 53.4955 31.7972C53.9334 32.6685 54.2693 33.6482 54.5839 34.9697H54.5882ZM55.9614 29.3875C55.9614 29.3875 55.9614 29.3917 55.9699 29.3958C56.191 29.646 56.3951 29.917 56.5864 30.1838L56.7097 30.3464C57.0073 30.7549 57.2752 31.0718 57.543 31.3427C57.5983 31.3969 57.6153 31.4219 57.6153 31.4219C57.6068 31.4386 57.5303 31.472 57.5048 31.4845C57.2539 31.6096 56.9776 31.6387 56.6459 31.6429H56.6204C55.5788 31.6429 54.6732 31.4261 53.8484 30.9884C53.538 30.8216 53.1851 30.634 52.9002 30.363C52.8025 30.2672 52.7387 30.1504 52.6664 30.0295C52.6239 29.9628 52.5856 29.8919 52.5346 29.8252C52.4538 29.7127 52.3816 29.596 52.305 29.4792C52.2625 29.4125 52.22 29.35 52.1775 29.2833C52.1222 29.2041 52.0839 29.1082 52.0627 28.9998C52.0372 28.8539 52.0839 28.7747 52.22 28.7288C52.2923 28.7038 52.3645 28.6913 52.4283 28.6913C52.6792 28.6788 52.9173 28.5912 53.1724 28.4203C53.1851 28.412 53.1979 28.4036 53.2064 28.3953L53.2531 28.3494C53.2744 28.3328 53.3552 28.2911 53.6188 28.2911C53.6911 28.2911 53.7803 28.2952 53.8866 28.3036H53.9036C54.3586 28.3077 54.7327 28.3494 55.0813 28.5245C55.1749 28.5704 55.2599 28.6329 55.3449 28.6955C55.3875 28.7288 55.4342 28.7622 55.4853 28.7997L55.5065 28.8247C55.7701 29.1499 55.9232 29.3416 55.9614 29.3875ZM62.2751 26.5526C62.1306 26.7736 61.9307 26.9445 61.6799 27.0571C60.8721 27.4114 60.1493 27.6532 59.4648 27.795C59.1204 27.8658 58.7633 27.9075 58.4061 27.9159C57.9214 27.9325 57.458 28.0368 57.0286 28.1493C56.6545 28.2452 56.2803 28.2077 55.9614 28.1618C55.6086 28.116 55.2599 28.0243 54.9198 27.9409C54.7242 27.8909 54.5329 27.8408 54.3373 27.7991C54.2565 27.7825 54.1715 27.7658 54.0907 27.7491C53.9972 27.7283 53.8994 27.7074 53.8059 27.6866C53.6826 27.6574 53.623 27.5907 53.6188 27.4781C53.6145 27.2864 53.5805 27.0154 53.3169 26.8278C53.3127 26.8236 53.2999 26.8153 53.2999 26.8069C53.2957 26.7986 53.3042 26.7819 53.3169 26.7694C53.4785 26.5818 53.5082 26.3483 53.5167 26.1482C53.5167 26.0148 53.572 25.9231 53.6868 25.8439C53.7676 25.7897 53.8441 25.7313 53.9249 25.673C54.0354 25.5854 54.1502 25.4979 54.265 25.427C54.7285 25.1477 55.2514 25.0184 55.7063 24.9267C55.9657 24.8725 56.225 24.8475 56.4801 24.8434C56.748 24.8725 57.0201 24.885 57.2837 24.8934C57.7939 24.9142 58.3211 24.9351 58.8185 25.0935C59.0821 25.1727 59.35 25.1894 59.6093 25.2019C59.7284 25.2102 59.8517 25.2144 59.9707 25.2269C60.2216 25.2561 60.4767 25.3103 60.719 25.3603C60.8168 25.3811 60.9146 25.402 61.0081 25.4187C61.0422 25.427 61.0762 25.4395 61.1017 25.4604C61.395 25.6688 61.7139 25.7772 62.0498 25.8856C62.2156 25.9398 62.3261 26.0232 62.3687 26.1357C62.4112 26.2525 62.3772 26.3942 62.2751 26.5526Z" fill="#282828"/>
<path d="M56.9772 22.5174C56.973 22.6174 56.905 22.7425 56.8539 22.8259C56.6201 23.2136 56.348 23.6638 56.0376 24.0765C55.8973 24.2725 55.7018 24.4017 55.4552 24.4643C55.3701 24.4893 55.2851 24.5101 55.2001 24.531C54.9407 24.5935 54.6686 24.656 54.4178 24.7811C54.0053 24.9937 53.6992 25.2105 53.4654 25.469L53.4441 25.494C53.4441 25.494 53.4229 25.519 53.4059 25.5315C53.2911 25.6482 53.2911 25.6524 53.1763 25.5523C52.8617 25.2939 52.5895 25.1438 52.3047 25.0646C52.3047 25.0604 52.3132 25.0604 52.3174 25.0562C52.4067 24.9895 52.496 24.9228 52.581 24.8561L52.7511 24.7311C52.9127 24.6102 53.0445 24.4643 53.1763 24.3225C53.2528 24.235 53.3378 24.1474 53.4229 24.064C53.4739 24.0182 53.5292 23.9765 53.5844 23.9348C53.6992 23.8473 53.8183 23.7597 53.8863 23.6346C54.1457 23.1719 54.5963 23.0135 55.0725 22.8467L55.1618 22.8175C55.3063 22.7633 55.4509 22.7133 55.5955 22.6633C55.9569 22.5424 56.3267 22.4131 56.6839 22.2631C56.7562 22.2297 56.8242 22.2297 56.8752 22.2631C56.939 22.3047 56.9772 22.4006 56.9772 22.5174Z" fill="#EFEDE4"/>
<path d="M62.2578 26.5392C62.109 26.7602 61.9092 26.9311 61.6583 27.0437C60.8548 27.398 60.1277 27.6398 59.4432 27.7816C59.0988 27.8524 58.7417 27.8941 58.3846 27.9025C57.8999 27.9191 57.4364 28.0234 57.007 28.1359C56.6329 28.2318 56.2587 28.1943 55.9399 28.1484C55.587 28.1026 55.2383 28.0109 54.8982 27.9275C54.7026 27.8775 54.5113 27.8274 54.3157 27.7857C54.2349 27.7691 54.1542 27.7524 54.0691 27.7357C53.9756 27.7149 53.8778 27.694 53.7843 27.6732C53.661 27.644 53.6014 27.5773 53.5972 27.4647C53.5929 27.273 53.5589 27.002 53.2953 26.8144C53.2953 26.8102 53.2783 26.8019 53.2783 26.7935C53.2783 26.7852 53.2826 26.7685 53.2953 26.756C53.4611 26.5684 53.4867 26.3349 53.4952 26.1348C53.4994 26.0014 53.5547 25.9097 53.6652 25.8305C53.746 25.7763 53.8268 25.7179 53.9033 25.6596C54.0139 25.572 54.1286 25.4845 54.2477 25.4136C54.7069 25.1343 55.2341 25.0051 55.6848 24.9133C55.9441 24.8591 56.2077 24.8341 56.4586 24.83C56.7264 24.8591 56.9985 24.8716 57.2621 24.88C57.7723 24.9008 58.2995 24.9217 58.797 25.0801C59.0648 25.1593 59.3284 25.176 59.5878 25.1885C59.7068 25.1968 59.8301 25.201 59.9492 25.2135C60.2 25.2427 60.4551 25.2969 60.6974 25.3469C60.7952 25.3678 60.893 25.3886 60.9866 25.4053C61.0206 25.4136 61.0546 25.4261 61.0801 25.447C61.3735 25.6554 61.6966 25.7638 62.0282 25.8722C62.194 25.9264 62.3046 26.0098 62.3471 26.1223C62.3896 26.2391 62.3598 26.3808 62.2578 26.5392Z" fill="white"/>
<path d="M57.5984 31.4097C57.5984 31.4097 57.5091 31.4597 57.4836 31.4722C57.2328 31.5973 56.9564 31.6265 56.6248 31.6306H56.5993C55.5576 31.6306 54.652 31.4139 53.8272 30.9761C53.5168 30.8094 53.1639 30.6218 52.8791 30.3508C52.7813 30.2549 52.7175 30.1382 52.6452 30.0173C52.607 29.9506 52.5644 29.8797 52.5177 29.813C52.4369 29.7004 52.3604 29.5837 52.2838 29.467C52.2413 29.4003 52.1988 29.3377 52.1563 29.271C52.101 29.1918 52.0628 29.0959 52.0457 28.9875C52.0202 28.8416 52.067 28.7624 52.1988 28.7165C52.2711 28.6915 52.3434 28.679 52.4071 28.679C52.658 28.6665 52.8961 28.579 53.1512 28.408C53.1682 28.3997 53.1767 28.3914 53.1852 28.383L53.1979 28.3705L53.232 28.3372C53.232 28.3372 53.334 28.2788 53.5976 28.2788C53.6699 28.2788 53.7592 28.283 53.8655 28.2913H53.8825C54.3374 28.2955 54.7115 28.3372 55.0644 28.5123C55.158 28.5581 55.2387 28.6207 55.3238 28.6832C55.3705 28.7165 55.413 28.7499 55.4641 28.7874L55.4853 28.8124C55.7489 29.1376 55.902 29.3294 55.9403 29.3752C55.9445 29.3752 55.9445 29.3794 55.9488 29.3836C56.1698 29.6337 56.3739 29.9047 56.5652 30.1715L56.6885 30.3341C56.9862 30.7427 57.254 31.0595 57.5219 31.3305C57.5771 31.3847 57.5941 31.4097 57.5984 31.4097Z" fill="#F4F4F4"/>
<path d="M54.7157 35.6951C54.7157 35.7951 54.6859 35.8702 54.6306 35.9119C54.5796 35.9452 54.5116 35.9494 54.4308 35.9244C54.1885 35.8452 53.9334 35.7576 53.6188 35.645C53.4657 35.5908 53.3254 35.5033 53.1553 35.3616C53.0023 35.2282 52.8407 35.1031 52.6876 34.978C52.3688 34.732 52.0456 34.4736 51.7735 34.1692C51.2761 33.6023 50.8382 33.0811 50.498 32.4725C50.413 32.3141 50.362 32.1431 50.311 31.9639C50.277 31.8513 50.2429 31.7346 50.2004 31.6262C50.1834 31.5803 50.2089 31.5261 50.2259 31.5011C50.5236 31.0259 50.6341 30.4797 50.5831 29.7376C50.5703 29.5375 50.5958 29.5042 50.8042 29.4583C50.8807 29.4375 50.9615 29.425 51.0423 29.4083C51.1018 29.4 51.1656 29.3875 51.2251 29.375C51.3696 29.3458 51.4972 29.2749 51.6162 29.204L51.6672 29.179C51.6672 29.179 51.6843 29.1665 51.6885 29.1665C51.6885 29.1707 51.6928 29.1707 51.6928 29.1748C51.7863 29.5584 52.0159 29.8669 52.2412 30.1629L52.2752 30.2129C52.3985 30.3713 52.5133 30.5214 52.6069 30.6882C52.6409 30.7465 52.6791 30.8049 52.7429 30.8424C53.1128 31.0592 53.2914 31.4136 53.4784 31.7846C53.9206 32.6559 54.2522 33.6356 54.5669 34.9572L54.5839 35.0322C54.6391 35.2657 54.6902 35.4825 54.7157 35.6951Z" fill="#F4F4F4"/>
<path d="M50.1536 30.1875C50.1663 30.5543 50.0388 30.8879 49.907 31.1672L49.8687 31.2506C49.7794 31.4507 49.6859 31.6549 49.5456 31.83C49.5116 31.8801 49.4648 31.9051 49.418 31.9051H49.4096C49.367 31.9009 49.3288 31.8717 49.3033 31.8217C49.0694 31.3673 48.8271 30.8962 48.7293 30.3751C48.6528 29.9874 48.7335 29.7205 48.9929 29.5163C49.0397 29.4787 49.0822 29.4412 49.1247 29.4037C49.163 29.3662 49.2012 29.3328 49.2395 29.2995C49.2735 29.2745 49.3075 29.262 49.3373 29.262C49.3713 29.262 49.401 29.2745 49.4308 29.3037C49.5456 29.4079 49.6774 29.4704 49.839 29.4996C50.0048 29.5288 50.0941 29.6372 50.1196 29.8248C50.1323 29.8998 50.1366 29.9832 50.1408 30.0624C50.1451 30.1041 50.1493 30.1499 50.1536 30.1875Z" fill="#EFEDE4"/>
<path d="M49.1969 32.7476C48.9333 33.4188 48.5464 34.0149 48.0532 34.5194C48.049 34.5194 48.0405 34.5319 48.0405 34.5319C48.0235 34.5444 48.0107 34.5611 47.998 34.5736C47.9767 34.5944 47.9427 34.6278 47.9342 34.6319C47.9087 34.6194 47.8959 34.6027 47.8917 34.5819C47.8874 34.5694 47.8917 34.5736 47.8832 34.5652C47.7981 34.3985 47.6961 33.9649 47.6663 33.8315C47.526 33.2728 47.4622 32.7059 47.4793 32.1472C47.4835 32.0097 47.4835 31.8721 47.4835 31.7345C47.4835 31.5094 47.4835 31.2801 47.5005 31.055C47.5303 30.6756 47.6366 30.3046 47.7216 30.0252C47.7641 29.896 47.8151 29.8668 48.0022 29.8668H48.0617C48.1553 29.8752 48.2488 29.8793 48.2616 29.8918C48.2701 29.9043 48.2658 29.9669 48.2658 30.0211C48.2616 30.0503 48.2616 30.0836 48.2616 30.117C48.2446 30.7215 48.4784 31.2509 48.725 31.747C48.7335 31.7595 48.742 31.7762 48.7505 31.7887C48.7675 31.8179 48.7845 31.8471 48.793 31.8804C48.8355 32.0222 48.9376 32.1097 49.0226 32.1681C49.2479 32.3307 49.299 32.4974 49.1969 32.7476Z" fill="white"/>
<path d="M47.0374 34.8444C46.9694 34.9236 46.9056 35.0112 46.8461 35.0946C46.8163 35.1363 46.7865 35.178 46.7568 35.2196C46.4549 35.6157 46.136 35.9742 45.8129 36.2952C45.7704 36.3369 45.7194 36.3786 45.6556 36.4245C45.5408 36.5037 45.4983 36.4995 45.4133 36.3869C45.3027 36.2452 45.2347 36.0743 45.2049 35.8658C45.1709 35.624 45.1582 35.3739 45.1454 35.1321C45.1369 34.957 45.1284 34.7819 45.1114 34.6068C45.0859 34.1941 45.0944 33.7688 45.1497 33.3394C45.1667 33.1935 45.1837 33.0476 45.2007 32.8975C45.2474 32.4515 45.2985 31.9887 45.426 31.5468C45.5536 31.1132 45.7109 30.7881 45.932 30.5254C46.034 30.3962 46.1445 30.317 46.2721 30.2753C46.5144 30.2002 46.6973 30.0501 46.8673 29.9042C46.9396 29.8375 47.0034 29.8083 47.0714 29.8083C47.0927 29.8083 47.1182 29.8125 47.1394 29.8209C47.2117 29.8375 47.216 29.8667 47.2117 29.9126C47.2032 29.9376 47.199 29.9626 47.1947 29.9876C47.1904 30.0293 47.1819 30.071 47.1692 30.1127C47.0672 30.4629 47.0289 30.8172 47.0034 31.2425C46.9779 31.7094 46.9651 32.0929 46.9651 32.4515C46.9651 33.0018 47.0459 33.5229 47.1904 34.0023C47.2967 34.3442 47.25 34.6026 47.0374 34.8444Z" fill="#F4F4F4"/>
<path d="M46.1995 28.441C45.9529 28.883 45.9954 29.2081 46.3483 29.5625C46.3653 29.5833 46.3696 29.5917 46.3738 29.5958C46.3696 29.5958 46.3653 29.6042 46.3441 29.6209C46.2888 29.6584 46.225 29.6917 46.1442 29.7209C45.6 29.9168 45.1451 30.267 44.7625 30.5797C44.1205 31.1092 43.5762 31.7345 43.1298 32.2723C42.8407 32.6225 42.5218 32.9435 42.22 33.2353C41.9861 33.4605 41.8076 33.6856 41.6673 33.919C41.5865 34.0524 41.4844 34.1108 41.3399 34.0941C40.9445 34.0566 40.8594 34.0149 40.7702 33.6481C40.7191 33.4146 40.7064 33.177 40.7021 32.8935C40.6851 32.5183 40.8212 32.1014 40.9445 31.7804C41.2719 30.9132 41.8331 30.1128 42.6621 29.3249C43.3594 28.6662 44.0567 28.1909 44.7965 27.8616C45.2897 27.6448 45.7148 27.5322 46.1315 27.5072C46.1782 27.5072 46.225 27.5072 46.2718 27.4822C46.3143 27.4613 46.3526 27.453 46.3951 27.453C46.4759 27.453 46.5566 27.4947 46.6629 27.5906C46.7182 27.6406 46.782 27.6948 46.7862 27.7156C46.7862 27.7323 46.714 27.8032 46.6672 27.8491C46.4759 28.0283 46.3186 28.2284 46.1995 28.441Z" fill="white"/>
<path d="M46.3231 26.8778C46.238 26.9445 46.1317 26.957 46.0169 26.9695H45.9829C45.7491 27.0029 45.5535 27.0529 45.3792 27.1196C45.1411 27.2155 44.903 27.3072 44.6649 27.3989C44.4821 27.4698 44.295 27.5448 44.108 27.6157C44.0697 27.6324 44.0442 27.6366 44.0229 27.6282C43.7296 27.4948 43.4107 27.4656 43.1088 27.4573C42.7389 27.4489 42.4626 27.2322 42.2372 27.0321C42.233 27.0321 42.2245 27.0237 42.2202 27.0237C42.0969 26.8986 41.7568 26.7527 41.4847 26.6443C41.4804 26.6443 41.4719 26.6402 41.4677 26.6402C41.3614 26.6152 41.2509 26.5818 41.1488 26.5318C40.9915 26.4567 40.8214 26.3859 40.6259 26.315C40.5663 26.2941 40.5281 26.2691 40.5196 26.2441C40.5068 26.2191 40.5196 26.1733 40.5493 26.1149C40.6641 25.8898 40.8555 25.7147 41.1701 25.5479C41.3571 25.452 41.5697 25.3978 41.7568 25.3978H41.8078C42.0332 25.3978 42.1777 25.427 42.3053 25.5021C42.5561 25.6438 42.8325 25.7022 43.1003 25.7522L43.1811 25.7689C43.3809 25.8106 43.5723 25.8939 43.7551 25.9731C43.8103 25.9982 43.8699 26.0232 43.9251 26.044C44.6182 26.3358 45.3664 26.4984 46.1488 26.5318H46.187C46.187 26.5318 46.2168 26.5318 46.2253 26.5359C46.2593 26.5443 46.2976 26.5401 46.3273 26.5359C46.3868 26.5318 46.3911 26.5359 46.4038 26.561C46.4421 26.6694 46.4038 26.8153 46.3231 26.8778Z" fill="#EFEDE4"/>
<path d="M55.2774 17.5515C55.2774 17.6974 55.2477 17.835 55.1924 17.9642C54.9288 18.5604 54.7375 19.1899 54.5546 19.7986C54.5164 19.9195 54.4824 20.0404 54.4441 20.1613C54.1592 21.0826 53.8021 22.1665 53.3302 23.1879C53.1388 23.5965 52.956 23.9592 52.6499 24.251C52.5394 24.3594 52.4118 24.4803 52.2673 24.5678C52.0674 24.6846 51.8676 24.8263 51.6763 24.9931C51.5827 25.0723 51.4722 25.089 51.3489 25.1056C51.3617 25.0598 51.3829 25.0181 51.3999 24.9764C51.5572 24.6012 51.4935 24.3427 51.1661 24.0884C50.9663 23.93 50.7409 23.7674 50.4476 23.7341C50.3625 23.7215 50.2987 23.659 50.2435 23.5298C50.1074 23.2171 50.0734 22.8961 50.1414 22.5834C50.286 21.9289 50.5964 21.3327 51.0598 20.8116C51.1278 20.7407 51.1831 20.6615 51.2299 20.5823C51.2639 20.5323 51.3021 20.4906 51.3447 20.4698C51.3532 20.4614 51.3617 20.4531 51.3659 20.4448L51.8081 19.9111C51.8293 19.8861 51.8548 19.8611 51.8804 19.8361L52.4586 19.29C52.5776 19.1607 52.7052 19.0398 52.8327 18.9231C52.973 18.798 53.1133 18.6646 53.2409 18.5229C53.4024 18.3436 53.5683 18.1685 53.7341 17.9976C53.8021 17.9267 53.8701 17.8517 53.9382 17.7808C54.0997 17.6099 54.2273 17.4264 54.3251 17.2388C54.4271 17.0387 54.7545 16.8511 54.9926 16.8636C55.0266 16.8678 55.0436 16.8803 55.0691 16.922C55.2094 17.1346 55.2774 17.3389 55.2774 17.5515Z" fill="white"/>
<path d="M51.1311 19.9823C50.8377 20.3033 50.4721 20.7035 50.2042 21.1496C49.8598 21.7291 49.6685 22.2335 49.6047 22.7338C49.5579 23.0923 49.609 23.4259 49.762 23.7135C49.7705 23.726 49.7748 23.7385 49.7748 23.7469H49.7493C49.6898 23.7427 49.6345 23.751 49.575 23.7552C49.5452 23.7594 49.5197 23.7594 49.4772 23.7677C49.4517 23.7719 49.4389 23.7719 49.4389 23.7719C49.4389 23.7719 49.4304 23.7552 49.4304 23.7093C49.4304 23.3675 49.3709 23.034 49.2476 22.688C49.069 22.1918 49.001 21.6666 48.9585 21.2163C48.9415 21.0287 48.9457 20.8286 48.9542 20.641C48.9542 20.5409 48.9585 20.4409 48.9585 20.3408C48.967 20.2866 49.0052 20.024 49.0478 19.7864L49.069 19.6571C49.154 19.2194 49.2306 18.8067 49.5154 18.4606C49.694 18.2439 49.9108 18.0729 50.1617 17.9562C50.2425 17.9145 50.37 17.8853 50.5231 18.0604C50.6294 18.1855 50.7186 18.3314 50.7824 18.5023C50.893 18.7942 50.9993 19.086 51.1055 19.382L51.1948 19.6363C51.2501 19.778 51.2331 19.8781 51.1311 19.9823Z" fill="#F4F4F4"/>
<path d="M48.9638 23.672C48.951 23.9013 48.8447 24.068 48.6534 24.1639C48.2155 24.3891 48.19 24.7851 48.2112 25.0603V25.0853C48.2155 25.127 48.2197 25.1686 48.2197 25.177C48.207 25.1853 48.1517 25.1978 48.1092 25.202C47.633 25.2854 47.2631 25.4146 46.9357 25.6147C46.8635 25.6564 46.8082 25.7064 46.7657 25.7648C46.6764 25.8982 46.5403 25.9691 46.3533 25.9774C46.0089 25.9941 45.6985 25.9649 45.4094 25.8815C45.2861 25.844 45.1671 25.8107 45.0438 25.7773C44.7887 25.7064 44.5251 25.6314 44.27 25.548C43.832 25.3979 43.3899 25.152 42.9222 24.7976L42.6586 24.6017C42.2504 24.2932 41.8253 23.9722 41.4299 23.6345C41.2981 23.5219 41.179 23.3885 41.0685 23.2384C41.0089 23.1634 40.9877 23.1009 41.0047 23.0508C41.0174 23.0008 41.0727 22.9549 41.1663 22.9132C41.5532 22.759 41.9698 22.6715 42.412 22.6631C42.4417 22.6631 42.4673 22.6589 42.497 22.6589C42.9604 22.6589 43.4451 22.759 44.0149 22.9591C44.1041 22.9925 44.1934 23.0258 44.2827 23.055C44.5251 23.1384 44.7759 23.2218 45.0097 23.3427C45.3244 23.4969 45.6092 23.7095 45.8813 23.9138C45.9409 23.9597 45.9961 24.0013 46.0556 24.043C46.1109 24.0847 46.1704 24.1306 46.23 24.1723C46.3448 24.264 46.4681 24.3557 46.5956 24.4391C46.8422 24.6058 47.1101 24.6934 47.3907 24.7017H47.548C47.667 24.7101 47.7903 24.7101 47.9136 24.7101C47.9901 24.7101 48.0497 24.6767 48.0794 24.6225C48.1092 24.5725 48.1049 24.5016 48.0624 24.4349C48.0029 24.3307 47.9009 24.2682 47.7861 24.264C47.1313 24.2265 46.6976 23.8346 46.3235 23.4177C46.0514 23.1134 45.8431 22.7548 45.6475 22.4046L45.6092 22.3463C45.3541 21.9002 45.065 21.4583 44.7887 21.0331C44.7036 20.9038 44.6186 20.7746 44.5336 20.6412C44.4188 20.4619 44.3295 20.2826 44.27 20.1076C44.1424 19.7157 43.9681 19.3363 43.798 18.9736C43.7343 18.8402 43.6705 18.7026 43.611 18.5692C43.5047 18.3316 43.4154 18.0856 43.3303 17.8438L43.2538 17.6187C43.1603 17.3644 43.1008 17.1101 43.037 16.8224C42.969 16.5098 42.9349 16.1762 42.9434 15.801C42.9477 15.726 42.9604 15.6635 42.9817 15.6051C43.0115 15.5426 43.0285 15.53 43.0412 15.5259C43.0497 15.5259 43.071 15.5259 43.1263 15.5592C43.2836 15.6551 43.4281 15.776 43.5684 15.8886C43.6195 15.9303 43.6705 15.972 43.7215 16.0136C44.6186 16.7349 45.2776 17.3227 45.8473 17.9314C46.332 18.44 46.8167 19.0111 47.3737 19.724C47.9901 20.5161 48.3388 21.4083 48.6024 22.1795C48.6364 22.2796 48.6704 22.3796 48.7087 22.4755C48.8022 22.7256 48.9 22.9841 48.9383 23.2509C48.9553 23.3843 48.9723 23.5261 48.9638 23.672Z" fill="white"/>
<path d="M83.2354 24.352C83.6034 22.928 83.6194 21.888 83.6194 20.8H75.3314V19.472H85.2514V20.688C85.2514 21.84 85.2514 23.04 84.8514 24.528L83.2354 24.352ZM86.8514 25.392V26.72H73.8274V25.392H78.9474V22.736H80.6114V25.392H86.8514ZM80.2914 27.84C83.3634 27.84 85.3474 28.864 85.3474 30.528C85.3474 32.208 83.3634 33.232 80.2914 33.232C77.1714 33.232 75.2034 32.208 75.2034 30.528C75.2034 28.864 77.1714 27.84 80.2914 27.84ZM80.2914 31.968C82.4194 31.968 83.6994 31.44 83.6994 30.528C83.6994 29.632 82.4194 29.104 80.2914 29.104C78.0994 29.104 76.8354 29.632 76.8354 30.528C76.8354 31.44 78.0994 31.968 80.2914 31.968ZM101.378 23.488H99.3302V26.928H97.6822V18.768H99.3302V22.128H101.378V23.488ZM95.3622 19.648C95.3622 23.408 92.8822 26 88.6102 27.152L87.9702 25.84C91.4262 24.944 93.3142 23.184 93.5862 20.992H88.6262V19.648H95.3622ZM90.0982 27.552H99.3302V33.056H90.0982V27.552ZM91.7302 31.728H97.6982V28.864H91.7302V31.728ZM118.475 30.112V31.472H105.387V30.112H111.083V27.2H106.859V19.744H108.491V22.176H115.339V19.744H116.971V27.2H112.731V30.112H118.475ZM108.491 25.872H115.339V23.504H108.491V25.872ZM131.914 18.784V33.232H130.346V25.888H128.634V32.512H127.082V19.072H128.634V24.528H130.346V18.784H131.914ZM121.914 28.176C123.194 28.128 124.554 28.048 126.154 27.744L126.33 29.152C124.394 29.52 122.762 29.584 121.226 29.584H120.266V20.448H121.914V28.176ZM145.785 18.784V33.232H144.137V18.784H145.785ZM141.529 20.304C141.529 24.608 139.801 28.256 134.841 30.656L133.961 29.344C137.753 27.504 139.561 24.976 139.833 21.648H134.681V20.304H141.529Z" fill="#282828"/>
</svg>
