<svg width="400" height="50" viewBox="0 0 400 50" fill="none" xmlns="http://www.w3.org/2000/svg">
<rect width="400" height="50" rx="6" fill="#282828"/>
<path d="M192.274 23.864V25.192H179.202V23.864H184.898V22.904C182.098 22.728 180.594 21.896 180.594 20.424C180.594 18.808 182.418 17.928 185.746 17.928C189.058 17.928 190.898 18.808 190.898 20.424C190.898 21.896 189.362 22.76 186.546 22.904V23.864H192.274ZM182.306 20.424C182.306 21.256 183.49 21.688 185.746 21.688C188.002 21.688 189.186 21.256 189.186 20.424C189.186 19.592 188.002 19.16 185.746 19.16C183.49 19.16 182.306 19.592 182.306 20.424ZM182.418 30.84H191.058V32.104H180.786V28.488H189.026V27.432H180.754V26.184H190.642V29.656H182.418V30.84ZM205.377 17.752V32.264H203.713V17.752H205.377ZM195.937 27.464C198.225 27.448 200.225 27.336 202.513 26.968L202.689 28.312C200.209 28.744 198.049 28.824 195.505 28.824H194.273V23.096H199.313V20.408H194.241V19.064H200.977V24.424H195.937V27.464ZM219.615 17.784V32.232H217.967V17.784H219.615ZM215.359 19.304C215.359 23.608 213.631 27.256 208.671 29.656L207.791 28.344C211.583 26.504 213.391 23.976 213.663 20.648H208.511V19.304H215.359Z" fill="#FAFAFA"/>
</svg>
