<svg width="400" height="50" viewBox="0 0 400 50" fill="none" xmlns="http://www.w3.org/2000/svg">
<rect width="400" height="50" rx="6" fill="#282828"/>
<path d="M183.667 23.336H173.73V18.28H183.57V19.608H175.362V22.008H183.667V23.336ZM185.17 24.536V25.896H172.114V24.536H185.17ZM178.594 26.968C181.698 26.968 183.57 27.928 183.57 29.592C183.57 31.272 181.778 32.232 178.594 32.232C175.506 32.232 173.618 31.272 173.618 29.592C173.618 27.928 175.506 26.968 178.594 26.968ZM178.594 30.952C180.722 30.952 181.906 30.488 181.906 29.592C181.906 28.696 180.722 28.232 178.594 28.232C176.466 28.232 175.298 28.696 175.298 29.592C175.298 30.488 176.466 30.952 178.594 30.952ZM199.425 25.64V26.968H186.321V25.64H192.049V24.328H188.001V20.6H196.145V19.384H187.969V18.12H197.777V21.784H189.617V23.064H198.065V24.328H193.697V25.64H199.425ZM187.793 27.944H197.857V32.152H196.209V29.272H187.793V27.944ZM214.016 24.968H211.792V32.248H210.128V17.784H211.792V23.592H214.016V24.968ZM205.584 20.008H208.96V21.352H200.496V20.008H203.936V17.992H205.584V20.008ZM204.784 22.376C206.832 22.376 208.368 23.768 208.368 25.752C208.368 27.736 206.832 29.128 204.784 29.128C202.688 29.128 201.2 27.736 201.2 25.752C201.2 23.768 202.688 22.376 204.784 22.376ZM204.784 27.768C205.952 27.768 206.8 26.968 206.8 25.752C206.8 24.536 205.952 23.736 204.784 23.736C203.616 23.736 202.768 24.536 202.768 25.752C202.768 26.968 203.616 27.768 204.784 27.768ZM226.735 17.784V32.232H225.087V17.784H226.735ZM222.479 19.304C222.479 23.608 220.751 27.256 215.791 29.656L214.911 28.344C218.703 26.504 220.511 23.976 220.783 20.648H215.631V19.304H222.479Z" fill="#FAFAFA"/>
</svg>
