<svg width="400" height="50" viewBox="0 0 400 50" fill="none" xmlns="http://www.w3.org/2000/svg">
<rect width="400" height="50" rx="6" fill="#282828"/>
<path d="M185.427 22.84H183.378V26.52H181.731V17.8H183.378V21.48H185.427V22.84ZM179.73 25.688C178.13 25.16 176.978 24.04 176.354 22.632C175.714 24.168 174.562 25.352 172.834 25.928L172.002 24.616C174.274 23.848 175.506 21.992 175.506 19.944V18.536H177.17V20.088C177.17 21.944 178.386 23.688 180.562 24.408L179.73 25.688ZM173.874 27.192H183.378V32.232H181.731V28.52H173.874V27.192ZM198.657 17.768V32.216H197.089V17.768H198.657ZM194.177 18.056H195.729V31.528H194.177V24.2H192.049V22.856H194.177V18.056ZM190.721 21.752C190.721 24.184 191.633 26.728 193.665 27.88L192.705 29.08C191.345 28.264 190.449 26.856 189.937 25.176C189.425 27.048 188.513 28.536 187.105 29.432L186.113 28.216C188.161 26.936 189.121 24.328 189.121 21.752V20.712H186.577V19.352H193.105V20.712H190.721V21.752ZM214.016 24.968H211.792V32.248H210.128V17.784H211.792V23.592H214.016V24.968ZM205.584 20.008H208.96V21.352H200.496V20.008H203.936V17.992H205.584V20.008ZM204.784 22.376C206.832 22.376 208.368 23.768 208.368 25.752C208.368 27.736 206.832 29.128 204.784 29.128C202.688 29.128 201.2 27.736 201.2 25.752C201.2 23.768 202.688 22.376 204.784 22.376ZM204.784 27.768C205.952 27.768 206.8 26.968 206.8 25.752C206.8 24.536 205.952 23.736 204.784 23.736C203.616 23.736 202.768 24.536 202.768 25.752C202.768 26.968 203.616 27.768 204.784 27.768ZM226.735 17.784V32.232H225.087V17.784H226.735ZM222.479 19.304C222.479 23.608 220.751 27.256 215.791 29.656L214.911 28.344C218.703 26.504 220.511 23.976 220.783 20.648H215.631V19.304H222.479Z" fill="#FAFAFA"/>
</svg>
