<svg width="400" height="50" viewBox="0 0 400 50" fill="none" xmlns="http://www.w3.org/2000/svg">
<rect width="400" height="50" rx="6" fill="#282828"/>
<path d="M184.418 17.768V32.216H182.851V17.768H184.418ZM179.938 18.056H181.49V31.528H179.938V24.2H177.81V22.856H179.938V18.056ZM176.482 21.752C176.482 24.184 177.394 26.728 179.426 27.88L178.466 29.08C177.106 28.264 176.21 26.856 175.698 25.176C175.186 27.048 174.274 28.536 172.866 29.432L171.874 28.216C173.922 26.936 174.882 24.328 174.882 21.752V20.712H172.338V19.352H178.866V20.712H176.482V21.752ZM186.945 22.312C189.873 22.136 191.569 21.368 191.889 20.216H187.633V18.984H192.033V17.72H193.681V18.984H198.097V20.216H193.825C194.145 21.368 195.857 22.136 198.753 22.312L198.305 23.544C195.729 23.368 193.761 22.664 192.849 21.448C191.937 22.664 190.001 23.368 187.425 23.544L186.945 22.312ZM193.681 25.304V26.424H197.761V29.784H189.537V30.872H198.177V32.104H187.905V28.648H196.145V27.64H187.873V26.424H192.033V25.304H186.353V24.072H199.393V25.304H193.681ZM214.016 24.968H211.792V32.248H210.128V17.784H211.792V23.592H214.016V24.968ZM205.584 20.008H208.96V21.352H200.496V20.008H203.936V17.992H205.584V20.008ZM204.784 22.376C206.832 22.376 208.368 23.768 208.368 25.752C208.368 27.736 206.832 29.128 204.784 29.128C202.688 29.128 201.2 27.736 201.2 25.752C201.2 23.768 202.688 22.376 204.784 22.376ZM204.784 27.768C205.952 27.768 206.8 26.968 206.8 25.752C206.8 24.536 205.952 23.736 204.784 23.736C203.616 23.736 202.768 24.536 202.768 25.752C202.768 26.968 203.616 27.768 204.784 27.768ZM226.735 17.784V32.232H225.087V17.784H226.735ZM222.479 19.304C222.479 23.608 220.751 27.256 215.791 29.656L214.911 28.344C218.703 26.504 220.511 23.976 220.783 20.648H215.631V19.304H222.479Z" fill="#FAFAFA"/>
</svg>
